<svg width="116" height="116" viewBox="0 0 116 116" fill="none" xmlns="http://www.w3.org/2000/svg">
<path d="M91.8329 43.5002C91.8329 50.5085 89.7546 56.9369 86.1779 62.3019C80.9579 70.0353 72.6929 75.4969 63.0746 76.8986C61.4313 77.1886 59.7396 77.3335 57.9996 77.3335C56.2596 77.3335 54.5679 77.1886 52.9246 76.8986C43.3063 75.4969 35.0413 70.0353 29.8213 62.3019C26.2446 56.9369 24.1663 50.5085 24.1663 43.5002C24.1663 24.7952 39.2946 9.66687 57.9996 9.66687C76.7046 9.66687 91.8329 24.7952 91.8329 43.5002Z" fill="#3056D3"/>
<path d="M102.704 89.2736L94.7292 91.1586C92.9408 91.5936 91.5392 92.947 91.1525 94.7353L89.4608 101.84C88.5425 105.707 83.6125 106.867 81.0508 103.822L57.9958 77.3353L34.9408 103.87C32.3792 106.915 27.4492 105.755 26.5308 101.889L24.8392 94.7836C24.4042 92.9952 23.0025 91.5936 21.2625 91.2069L13.2875 89.322C9.61416 88.452 8.30916 83.8602 10.9675 81.2019L29.8175 62.3519C35.0375 70.0853 43.3025 75.547 52.9208 76.9487C54.5642 77.2387 56.2558 77.3837 57.9958 77.3837C59.7358 77.3837 61.4275 77.2387 63.0708 76.9487C72.6892 75.547 80.9542 70.0853 86.1742 62.3519L105.024 81.2019C107.682 83.8119 106.377 88.4036 102.704 89.2736Z" fill="#3171DE"/>
<path d="M60.803 28.9031L63.6547 34.6064C64.0414 35.3798 65.0564 36.1531 65.9747 36.2981L71.1464 37.1681C74.433 37.6998 75.2064 40.1165 72.838 42.4848L68.8264 46.4964C68.1497 47.1731 67.763 48.4781 68.0047 49.4448L69.1647 54.4231C70.083 58.3381 68.0047 59.8847 64.5247 57.8064L59.6914 54.9547C58.8214 54.4231 57.3714 54.4231 56.5014 54.9547L51.668 57.8064C48.188 59.8364 46.1097 58.3381 47.028 54.4231L48.188 49.4448C48.3814 48.5265 48.043 47.1731 47.3664 46.4964L43.3547 42.4848C40.9864 40.1165 41.7597 37.7481 45.0464 37.1681L50.218 36.2981C51.088 36.1531 52.103 35.3798 52.4897 34.6064L55.3414 28.9031C56.743 25.8098 59.2564 25.8098 60.803 28.9031Z" fill="#A0BFF4"/>
</svg>
