<svg width="50" height="50" viewBox="0 0 50 50" fill="none" xmlns="http://www.w3.org/2000/svg">
<path d="M45.4365 8.20808C42.2282 16.2081 34.1865 27.0831 27.4574 32.4789L23.3532 35.7706C22.8324 36.1456 22.3115 36.4789 21.7282 36.7081C21.7282 36.3331 21.7074 35.9164 21.6449 35.5206C21.4157 33.7706 20.624 32.1456 19.2282 30.7497C17.8115 29.3331 16.0824 28.4997 14.3115 28.2706C13.8949 28.2497 13.4782 28.2081 13.0615 28.2497C13.2907 27.6039 13.6449 26.9997 14.0824 26.4997L17.3324 22.3956C22.7074 15.6664 33.624 7.58308 41.6032 4.39558C42.8324 3.93724 44.0199 4.27058 44.7699 5.04141C45.5615 5.81224 45.9365 6.99975 45.4365 8.20808Z" stroke="#E27244" stroke-width="3.125" stroke-linecap="round" stroke-linejoin="round"/>
<path d="M21.7293 36.7082C21.7293 38.9998 20.8543 41.1873 19.2085 42.854C17.9377 44.1248 16.2085 44.9998 14.146 45.2707L9.021 45.8332C6.22933 46.1457 3.8335 43.7707 4.16683 40.9373L4.72933 35.8123C5.22933 31.2498 9.04183 28.3332 13.0835 28.2498C13.5002 28.229 13.9377 28.2498 14.3335 28.2707C16.1043 28.4998 17.8335 29.3123 19.2502 30.7498C20.646 32.1457 21.4377 33.7707 21.6668 35.5207C21.6877 35.9165 21.7293 36.3123 21.7293 36.7082Z" stroke="#E27244" stroke-width="3.125" stroke-linecap="round" stroke-linejoin="round"/>
<path d="M29.6667 30.1462C29.6667 24.7087 25.25 20.292 19.8125 20.292" stroke="#E27244" stroke-width="3.125" stroke-linecap="round" stroke-linejoin="round"/>
</svg>
