<svg width="50" height="50" viewBox="0 0 50 50" fill="none" xmlns="http://www.w3.org/2000/svg">
<path d="M41.6667 29.1668C43.9679 29.1668 45.8333 27.3013 45.8333 25.0002C45.8333 22.699 43.9679 20.8335 41.6667 20.8335C39.3655 20.8335 37.5 22.699 37.5 25.0002C37.5 27.3013 39.3655 29.1668 41.6667 29.1668Z" stroke="#F3BC4C" stroke-width="3.125" stroke-linecap="round" stroke-linejoin="round"/>
<path d="M41.6667 12.4998C43.9679 12.4998 45.8333 10.6344 45.8333 8.33317C45.8333 6.03198 43.9679 4.1665 41.6667 4.1665C39.3655 4.1665 37.5 6.03198 37.5 8.33317C37.5 10.6344 39.3655 12.4998 41.6667 12.4998Z" stroke="#F3BC4C" stroke-width="3.125" stroke-linecap="round" stroke-linejoin="round"/>
<path d="M41.6667 45.8333C43.9679 45.8333 45.8333 43.9679 45.8333 41.6667C45.8333 39.3655 43.9679 37.5 41.6667 37.5C39.3655 37.5 37.5 39.3655 37.5 41.6667C37.5 43.9679 39.3655 45.8333 41.6667 45.8333Z" stroke="#F3BC4C" stroke-width="3.125" stroke-linecap="round" stroke-linejoin="round"/>
<path d="M8.33366 29.1668C10.6348 29.1668 12.5003 27.3013 12.5003 25.0002C12.5003 22.699 10.6348 20.8335 8.33366 20.8335C6.03247 20.8335 4.16699 22.699 4.16699 25.0002C4.16699 27.3013 6.03247 29.1668 8.33366 29.1668Z" stroke="#F3BC4C" stroke-width="3.125" stroke-linecap="round" stroke-linejoin="round"/>
<path d="M12.5 25H37.5" stroke="#F3BC4C" stroke-width="3.125" stroke-linecap="round" stroke-linejoin="round"/>
<path d="M37.5003 8.3335H29.167C25.0003 8.3335 22.917 10.4168 22.917 14.5835V35.4168C22.917 39.5835 25.0003 41.6668 29.167 41.6668H37.5003" stroke="#F3BC4C" stroke-width="3.125" stroke-linecap="round" stroke-linejoin="round"/>
</svg>
