<svg width="69" height="69" viewBox="0 0 69 69" fill="none" xmlns="http://www.w3.org/2000/svg">
<path d="M44.2477 14.9788L48.3014 23.0862C48.8477 24.2075 50.3139 25.2712 51.5502 25.5012L58.8815 26.7088C63.5677 27.485 64.6602 30.8775 61.2965 34.27L55.5752 39.9913C54.6264 40.94 54.0802 42.8088 54.3965 44.16L56.0352 51.2325C57.3289 56.81 54.339 58.995 49.4227 56.0625L42.5514 51.98C41.3152 51.2325 39.2452 51.2325 38.0089 51.98L31.1377 56.0625C26.2214 58.9663 23.2314 56.81 24.5252 51.2325L26.164 44.16C26.4802 42.8375 25.934 40.9688 24.9852 39.9913L19.264 34.27C15.9002 30.9062 16.9927 27.5138 21.679 26.7088L29.0102 25.5012C30.2464 25.3 31.7127 24.2075 32.2589 23.0862L36.3127 14.9788C38.469 10.58 42.034 10.58 44.2477 14.9788Z" fill="#F3BC4C"/>
<path opacity="0.4" d="M23 16.5312H5.75C4.57125 16.5312 3.59375 15.5538 3.59375 14.375C3.59375 13.1963 4.57125 12.2188 5.75 12.2188H23C24.1787 12.2188 25.1562 13.1963 25.1562 14.375C25.1562 15.5538 24.1787 16.5312 23 16.5312Z" fill="#F3BC4C"/>
<path opacity="0.4" d="M14.375 56.7812H5.75C4.57125 56.7812 3.59375 55.8038 3.59375 54.625C3.59375 53.4463 4.57125 52.4688 5.75 52.4688H14.375C15.5538 52.4688 16.5312 53.4463 16.5312 54.625C16.5312 55.8038 15.5538 56.7812 14.375 56.7812Z" fill="#F3BC4C"/>
<path opacity="0.4" d="M8.625 36.6562H5.75C4.57125 36.6562 3.59375 35.6788 3.59375 34.5C3.59375 33.3213 4.57125 32.3438 5.75 32.3438H8.625C9.80375 32.3438 10.7812 33.3213 10.7812 34.5C10.7812 35.6788 9.80375 36.6562 8.625 36.6562Z" fill="#F3BC4C"/>
</svg>
