<svg width="127" height="42" viewBox="0 0 127 42" fill="none" xmlns="http://www.w3.org/2000/svg">
<g clip-path="url(#clip0_1_1279)">
<path d="M122.576 25.7662L126.072 28.0965C124.937 29.7675 122.224 32.6345 117.533 32.6345C111.707 32.6345 107.369 28.1273 107.369 22.3935C107.369 16.2921 111.753 12.1528 117.042 12.1528C122.362 12.1528 124.968 16.3839 125.811 18.6682L126.271 19.8334L112.566 25.5056C113.608 27.56 115.233 28.6025 117.533 28.6025C119.832 28.6025 121.427 27.468 122.576 25.7662ZM111.83 22.0719L120.982 18.2697C120.476 16.9974 118.974 16.093 117.18 16.093C114.896 16.093 111.723 18.1167 111.83 22.0719Z" fill="#A9A9B9"/>
<path d="M100.76 1.71347H105.175V31.7H100.76V1.71323V1.71347Z" fill="#A9A9B9"/>
<path d="M93.7994 12.9501H98.0613V31.1627C98.0613 38.7205 93.6001 41.8326 88.3263 41.8326C83.3594 41.8326 80.3701 38.4907 79.2508 35.7772L83.16 34.152C83.8651 35.823 85.5668 37.8009 88.3263 37.8009C91.7143 37.8009 93.7994 35.7005 93.7994 31.776V30.3044H93.6461C92.6342 31.5307 90.7026 32.6344 88.2497 32.6344C83.1293 32.6344 78.438 28.1732 78.438 22.4244C78.438 16.6447 83.1293 12.1377 88.2497 12.1377C90.6873 12.1377 92.6342 13.2262 93.6461 14.422H93.7994V12.9503V12.9501ZM94.1058 22.4244C94.1058 18.8064 91.699 16.1695 88.6329 16.1695C85.5361 16.1695 82.9299 18.8064 82.9299 22.4244C82.9299 25.9963 85.5361 28.5871 88.6329 28.5871C91.6992 28.6026 94.106 25.9963 94.106 22.4244H94.1058Z" fill="#A9A9B9"/>
<path d="M54.2019 22.3483C54.2019 28.2506 49.6029 32.589 43.9612 32.589C38.3197 32.589 33.7205 28.2354 33.7205 22.3483C33.7205 16.4155 38.3197 12.0923 43.9612 12.0923C49.6029 12.0923 54.2019 16.4155 54.2019 22.3483ZM49.7254 22.3483C49.7254 18.6692 47.0578 16.1394 43.9612 16.1394C40.8646 16.1394 38.1969 18.6692 38.1969 22.3483C38.1969 25.9969 40.8646 28.5572 43.9612 28.5572C47.058 28.5572 49.7254 25.9969 49.7254 22.3483Z" fill="#A9A9B9"/>
<path d="M76.5686 22.3935C76.5686 28.2958 71.9693 32.6342 66.3279 32.6342C60.6862 32.6342 56.0872 28.2956 56.0872 22.3935C56.0872 16.4607 60.6862 12.1528 66.3279 12.1528C71.9693 12.1528 76.5686 16.4454 76.5686 22.3935ZM72.0766 22.3935C72.0766 18.7144 69.4092 16.1846 66.3124 16.1846C63.2158 16.1846 60.5481 18.7144 60.5481 22.3935C60.5481 26.0421 63.2158 28.6025 66.3124 28.6025C69.4245 28.6025 72.0766 26.0269 72.0766 22.3935Z" fill="#A9A9B9"/>
<path d="M16.8871 28.1424C10.4636 28.1424 5.43542 22.9606 5.43542 16.5371C5.43542 10.1138 10.4636 4.93205 16.8871 4.93205C20.3519 4.93205 22.8813 6.29639 24.7516 8.04415L27.8332 4.96281C25.227 2.46397 21.747 0.562653 16.8871 0.562653C8.08757 0.562899 0.682861 7.73776 0.682861 16.5371C0.682861 25.3369 8.08757 32.5115 16.8871 32.5115C21.6397 32.5115 25.227 30.9478 28.0325 28.0351C30.9145 25.1528 31.8036 21.1056 31.8036 17.8249C31.8036 16.7977 31.6811 15.74 31.543 14.9582H16.8871V19.22H27.3272C27.0206 21.8877 26.1774 23.712 24.9356 24.9535C23.4332 26.4714 21.0572 28.1424 16.8871 28.1424Z" fill="#A9A9B9"/>
</g>
<defs>
<clipPath id="clip0_1_1279">
<rect width="126" height="41.3438" fill="white" transform="translate(0.5 0.5)"/>
</clipPath>
</defs>
</svg>
