<svg width="102" height="102" viewBox="0 0 102 102" fill="none" xmlns="http://www.w3.org/2000/svg">
<g clip-path="url(#clip0_1_1294)">
<path d="M22.6595 28.6475C16.7819 28.6475 11.145 30.9823 6.98897 35.1384C2.8329 39.2945 0.498047 44.9313 0.498047 50.8089C0.498047 56.6864 2.8329 62.3233 6.98897 66.4794C11.145 70.6354 16.7819 72.9703 22.6595 72.9703C28.4624 72.8574 33.9895 70.4729 38.0535 66.3292C42.1175 62.1854 44.394 56.6129 44.394 50.8089C44.394 45.0048 42.1175 39.4324 38.0535 35.2886C33.9895 31.1448 28.4624 28.7603 22.6595 28.6475ZM22.6595 32.253C22.8691 32.253 23.3135 32.253 23.5399 32.2614V33.9929C23.2464 33.9866 22.953 33.9824 22.6595 33.9803C20.4504 33.9748 18.2621 34.4073 16.2213 35.2529C14.1804 36.0984 12.3275 37.3402 10.7696 38.9064C9.20263 40.4638 7.96034 42.3166 7.11473 44.3576C6.26911 46.3986 5.83701 48.5871 5.84345 50.7963C5.84345 55.2906 7.59171 59.5166 10.7696 62.6861C12.3275 64.2524 14.1804 65.4942 16.2213 66.3397C18.2621 67.1853 20.4504 67.6178 22.6595 67.6123C26.9222 67.6045 31.0236 65.9821 34.1377 63.0718C37.2518 60.1616 39.1471 56.1797 39.4419 51.9283V51.6767H27.9629V49.9578H40.4607L41.2028 49.9536V50.7963C41.2105 53.2323 40.735 55.6457 39.8038 57.8967C38.8726 60.1477 37.5041 62.1917 35.7777 63.9103C34.0579 65.6382 32.0128 67.008 29.7604 67.9406C27.508 68.8732 25.0931 69.3501 22.6553 69.3438C17.7081 69.3438 13.0545 67.4153 9.53283 63.9103C7.80715 62.1914 6.43949 60.1472 5.50901 57.8962C4.57852 55.6452 4.10368 53.232 4.11196 50.7963C4.1175 45.8785 6.07326 41.1637 9.55027 37.6859C13.0273 34.2081 17.7417 32.2513 22.6595 32.2446V32.253ZM90.0032 35.934C80.7378 35.934 75.8661 40.9943 75.8661 50.6412C75.8661 60.2419 80.2682 65.4406 89.9528 65.4406C94.3969 65.4406 98.7528 64.3086 101.117 62.6526V48.7504H89.63V54.0916H95.0173V59.1016C94.0237 59.4789 92.0826 59.8604 90.2379 59.8604C84.2846 59.8604 82.2974 56.8335 82.2974 50.6873C82.2974 44.8262 84.184 41.3716 90.1457 41.3716C93.4577 41.3716 95.3444 42.4113 96.9082 44.3986L101.025 40.617C98.5181 37.024 94.1202 35.934 89.999 35.934H90.0032ZM54.7319 36.3616V65.013H75.0654V59.437H61.356V36.3574L54.7319 36.3616ZM15.5826 41.0698C16.2886 41.0698 16.9658 41.3502 17.465 41.8495C17.9643 42.3488 18.2448 43.0259 18.2448 43.732C18.2448 44.438 17.9643 45.1152 17.465 45.6145C16.9658 46.1137 16.2886 46.3942 15.5826 46.3942C14.8765 46.3942 14.1994 46.1137 13.7001 45.6145C13.2008 45.1152 12.9203 44.438 12.9203 43.732C12.9203 43.0259 13.2008 42.3488 13.7001 41.8495C14.1994 41.3502 14.8765 41.0698 15.5826 41.0698ZM21.779 41.0781H23.5399V58.7704H27.9504V60.5061H21.779V41.0781Z" fill="#A9A9B9"/>
</g>
<defs>
<clipPath id="clip0_1_1294">
<rect width="100.619" height="100.619" fill="white" transform="translate(0.5 0.5)"/>
</clipPath>
</defs>
</svg>
