<svg width="133" height="29" viewBox="0 0 133 29" fill="none" xmlns="http://www.w3.org/2000/svg">
<g clip-path="url(#clip0_1_1272)">
<path d="M132.614 13.2591V10.9355H129.728V7.32353L129.631 7.35321L126.921 8.18253L126.868 8.19879V10.9355H122.591V9.41103C122.591 8.70118 122.749 8.15776 123.062 7.79574C123.373 7.43758 123.817 7.25567 124.384 7.25567C124.792 7.25567 125.213 7.35166 125.638 7.5408L125.744 7.58828V5.14159L125.694 5.12353C125.298 4.98084 124.759 4.90936 124.092 4.90936C123.25 4.90936 122.486 5.09231 121.818 5.45536C121.161 5.80883 120.62 6.34419 120.259 6.99738C119.892 7.6564 119.706 8.41734 119.706 9.25957V10.9358H117.697V13.2594H119.706V23.0474H122.591V13.2591H126.868V19.4793C126.868 22.041 128.076 23.3395 130.459 23.3395C130.871 23.3371 131.282 23.2914 131.684 23.2032C132.112 23.1111 132.404 23.019 132.576 22.9207L132.614 22.8982V20.5532L132.496 20.6309C132.34 20.7354 132.145 20.8205 131.916 20.8838C131.687 20.9483 131.495 20.9808 131.347 20.9808C130.788 20.9808 130.375 20.8303 130.119 20.5333C129.86 20.234 129.728 19.71 129.728 18.9771V13.2591H132.614ZM111.257 20.981C110.21 20.981 109.385 20.6337 108.803 19.9502C108.218 19.2628 107.921 18.2833 107.921 17.0383C107.921 15.754 108.218 14.749 108.803 14.0495C109.385 13.3548 110.203 13.0021 111.233 13.0021C112.233 13.0021 113.029 13.3388 113.599 14.0038C114.172 14.6718 114.463 15.6689 114.463 16.9681C114.463 18.2833 114.19 19.2937 113.65 19.9695C113.115 20.6404 112.31 20.981 111.257 20.981ZM111.385 10.6437C109.388 10.6437 107.802 11.2289 106.671 12.3831C105.54 13.5375 104.967 15.1348 104.967 17.1314C104.967 19.0277 105.527 20.553 106.63 21.6643C107.733 22.7759 109.235 23.339 111.093 23.339C113.029 23.339 114.583 22.7457 115.714 21.5755C116.844 20.4067 117.417 18.8244 117.417 16.8742C117.417 14.9484 116.88 13.4119 115.819 12.308C114.758 11.2036 113.266 10.6437 111.385 10.6437ZM100.317 10.6437C98.9584 10.6437 97.8347 10.9912 96.9762 11.6763C96.1128 12.3655 95.6747 13.2697 95.6747 14.3635C95.6747 14.9319 95.7691 15.4369 95.9554 15.8652C96.1425 16.2951 96.4323 16.6734 96.8173 16.991C97.1992 17.3061 97.7888 17.6361 98.5703 17.9716C99.227 18.242 99.7171 18.4709 100.028 18.651C100.332 18.8277 100.548 19.0053 100.67 19.1781C100.789 19.3472 100.849 19.5789 100.849 19.8645C100.849 20.6784 100.24 21.0742 98.9858 21.0742C98.5205 21.0742 97.99 20.9772 97.4089 20.7857C96.832 20.5971 96.2875 20.3209 95.7944 19.967L95.6747 19.8813V22.6577L95.7186 22.6784C96.1268 22.8668 96.6413 23.0254 97.2477 23.1506C97.853 23.2755 98.4026 23.3392 98.8805 23.3392C100.355 23.3392 101.542 22.9901 102.408 22.3009C103.28 21.6068 103.722 20.6817 103.722 19.5497C103.722 18.7336 103.484 18.0333 103.015 17.4687C102.549 16.9087 101.741 16.3945 100.614 15.9401C99.7163 15.5796 99.1409 15.2805 98.9037 15.0509C98.6749 14.829 98.5587 14.5152 98.5587 14.1181C98.5587 13.7656 98.7022 13.4836 98.9966 13.255C99.2934 13.0253 99.7062 12.9084 100.224 12.9084C100.705 12.9084 101.196 12.9843 101.685 13.1329C102.174 13.2818 102.603 13.4813 102.961 13.7249L103.079 13.8054V11.1713L103.034 11.152C102.703 11.0101 102.267 10.8888 101.738 10.7907C101.211 10.6932 100.733 10.6437 100.317 10.6437ZM88.1558 20.981C87.1092 20.981 86.2838 20.6337 85.7022 19.9502C85.117 19.2628 84.821 18.2833 84.821 17.0383C84.821 15.754 85.1172 14.749 85.7029 14.0495C86.2843 13.3548 87.1015 13.0021 88.1326 13.0021C89.1325 13.0021 89.9285 13.3388 90.4988 14.0038C91.0719 14.6718 91.3627 15.6689 91.3627 16.9681C91.3627 18.2833 91.0892 19.2937 90.5499 19.9695C90.0142 20.6404 89.2091 20.981 88.1558 20.981ZM88.2846 10.6437C86.2869 10.6437 84.7005 11.2289 83.5703 12.3831C82.4401 13.5375 81.8665 15.1348 81.8665 17.1314C81.8665 19.0285 82.4264 20.553 83.5295 21.6643C84.6329 22.7759 86.1344 23.339 87.9925 23.339C89.9277 23.339 91.4832 22.7457 92.6139 21.5755C93.7438 20.4067 94.3169 18.8244 94.3169 16.8742C94.3169 14.9484 93.7792 13.4119 92.7186 12.308C91.6574 11.2036 90.1654 10.6437 88.2846 10.6437ZM77.4884 13.0331V10.9355H74.6395V23.0469H77.4882V16.8512C77.4882 15.7976 77.7271 14.9322 78.1985 14.2786C78.6638 13.6327 79.2841 13.3053 80.0409 13.3053C80.2976 13.3053 80.5856 13.3476 80.8976 13.4315C81.2064 13.5146 81.4302 13.6049 81.562 13.6998L81.6817 13.7868V10.9149L81.6353 10.895C81.3703 10.7822 80.9949 10.7255 80.5201 10.7255C79.804 10.7255 79.1633 10.9554 78.6147 11.4082C78.133 11.8064 77.7846 12.3524 77.5186 13.0331H77.4884ZM69.5376 10.6437C68.2307 10.6437 67.0646 10.9241 66.073 11.4766C65.0795 12.0301 64.3109 12.821 63.7881 13.826C63.2676 14.829 63.0034 16.0005 63.0034 17.3069C63.0034 18.451 63.2596 19.5012 63.7659 20.4265C64.2727 21.3536 64.99 22.079 65.8978 22.5821C66.8045 23.0845 67.8524 23.3392 69.0122 23.3392C70.3662 23.3392 71.5221 23.0685 72.4493 22.5349L72.4864 22.5132V19.9032L72.367 19.9907C71.9405 20.2998 71.4708 20.5442 70.973 20.7163C70.4694 20.892 70.0106 20.9808 69.6081 20.9808C68.49 20.9808 67.5928 20.6311 66.9413 19.9417C66.2884 19.2509 65.9574 18.2815 65.9574 17.0612C65.9574 15.8335 66.3026 14.839 66.9828 14.1049C67.6612 13.3734 68.5602 13.0024 69.655 13.0024C70.5914 13.0024 71.5038 13.3195 72.367 13.9457L72.4864 14.0324V11.2823L72.448 11.2606C72.1229 11.0787 71.6801 10.9285 71.1299 10.8147C70.5824 10.7012 70.0467 10.6437 69.5376 10.6437ZM61.0413 10.9355H58.1921V23.0469H61.0413V10.9355ZM59.6459 5.7761C59.177 5.7761 58.768 5.93582 58.4321 6.25192C58.0946 6.5693 57.9232 6.96874 57.9232 7.43991C57.9232 7.90385 58.0925 8.29581 58.4264 8.60467C58.7585 8.91251 59.1687 9.06862 59.6459 9.06862C60.1227 9.06862 60.5345 8.91251 60.8705 8.60519C61.2085 8.29581 61.3801 7.90385 61.3801 7.43991C61.3801 6.98525 61.2132 6.58968 60.8844 6.26482C60.5559 5.94047 60.139 5.7761 59.6459 5.7761ZM52.5375 10.0422V23.0466H55.4451V6.1469H51.421L46.306 18.6995L41.3424 6.1469H37.1545V23.0469H39.8869V10.0409H39.9808L45.2222 23.0469H47.2839L52.4436 10.0419L52.5375 10.0422Z" fill="#A9A9B9"/>
<path d="M13.9023 13.9021H0.500244V0.500031H13.9023V13.9021Z" fill="#A9A9B9"/>
<path d="M28.7006 13.9021H15.2986V0.5H28.7006V13.9021Z" fill="#A9A9B9"/>
<path d="M13.9018 28.7053H0.5V15.3033H13.9018V28.7053Z" fill="#A9A9B9"/>
<path d="M28.7006 28.7053H15.2986V15.3033H28.7006V28.7053Z" fill="#A9A9B9"/>
</g>
<defs>
<clipPath id="clip0_1_1272">
<rect width="132.114" height="28.3838" fill="white" transform="translate(0.5 0.5)"/>
</clipPath>
</defs>
</svg>
