<svg width="41" height="58" viewBox="0 0 41 58" fill="none" xmlns="http://www.w3.org/2000/svg">
<path d="M39 15.5V42.5C39 53.3 36.6875 56 27.4375 56H13.5625C4.3125 56 2 53.3 2 42.5V15.5C2 4.7 4.3125 2 13.5625 2H27.4375C36.6875 2 39 4.7 39 15.5Z" stroke="white" stroke-width="3.46875" stroke-linecap="round" stroke-linejoin="round"/>
<path d="M25.125 11.4497H15.875" stroke="white" stroke-width="3.46875" stroke-linecap="round" stroke-linejoin="round"/>
<path d="M20.5004 48.1693C22.48 48.1693 24.0848 46.2956 24.0848 43.9843C24.0848 41.673 22.48 39.7993 20.5004 39.7993C18.5208 39.7993 16.916 41.673 16.916 43.9843C16.916 46.2956 18.5208 48.1693 20.5004 48.1693Z" stroke="white" stroke-width="3.46875" stroke-linecap="round" stroke-linejoin="round"/>
</svg>
