<svg width="350" height="244" viewBox="0 0 350 244" fill="none" xmlns="http://www.w3.org/2000/svg">
<g filter="url(#filter0_d_102_3127)">
<rect x="18" y="12" width="207" height="207" rx="103.5" stroke="url(#paint0_linear_102_3127)" stroke-width="2" shape-rendering="crispEdges"/>
<path d="M68.367 140.874C64.8213 140.874 61.8342 140.194 59.4056 138.834C56.9771 137.426 55.0828 135.604 53.7228 133.37C52.3628 131.136 51.5614 128.732 51.3185 126.157H59.9885C60.377 128.392 61.2999 130.116 62.757 131.33C64.2627 132.544 66.157 133.151 68.4398 133.151C71.6941 133.151 74.3169 131.67 76.3083 128.707C78.2998 125.696 79.3683 121.13 79.514 115.01C78.3483 117.002 76.5755 118.653 74.1955 119.964C71.8641 121.276 69.2898 121.932 66.4727 121.932C63.6556 121.932 61.0085 121.252 58.5313 119.892C56.0542 118.532 54.0385 116.613 52.4842 114.136C50.93 111.659 50.1528 108.745 50.1528 105.393C50.1528 102.333 50.9057 99.4917 52.4114 96.8689C53.9171 94.2461 56.0056 92.1332 58.6771 90.5304C61.3485 88.9275 64.4813 88.1261 68.0756 88.1261C71.9127 88.1261 75.1426 88.8304 77.7655 90.2389C80.3883 91.6475 82.4769 93.5418 84.0311 95.9218C85.634 98.3017 86.7754 100.949 87.4554 103.863C88.184 106.777 88.5483 109.765 88.5483 112.824C88.5483 118.507 87.7468 123.462 86.144 127.687C84.5897 131.864 82.2826 135.119 79.2226 137.45C76.2112 139.733 72.5927 140.874 68.367 140.874ZM68.6584 114.063C70.4555 114.063 72.0827 113.674 73.5398 112.897C74.9969 112.072 76.1384 111.003 76.9641 109.692C77.7898 108.332 78.2026 106.826 78.2026 105.175C78.2026 102.552 77.2798 100.39 75.4341 98.6903C73.6369 96.9903 71.3541 96.1403 68.5855 96.1403C65.8656 96.1403 63.607 96.9903 61.8099 98.6903C60.0128 100.342 59.1142 102.455 59.1142 105.029C59.1142 107.749 60.0128 109.935 61.8099 111.586C63.607 113.237 65.8899 114.063 68.6584 114.063ZM113.174 140.874C109.822 140.874 106.787 140.291 104.067 139.126C101.347 137.911 99.161 136.066 97.5096 133.589C95.8582 131.111 94.9839 128.003 94.8868 124.263H104.067C104.115 126.74 104.917 128.829 106.471 130.529C108.074 132.18 110.308 133.006 113.174 133.006C115.894 133.006 117.982 132.253 119.439 130.747C120.897 129.242 121.625 127.347 121.625 125.064C121.625 122.393 120.654 120.377 118.711 119.017C116.817 117.609 114.364 116.904 111.352 116.904H107.564V109.255H111.425C113.902 109.255 115.967 108.672 117.618 107.506C119.269 106.34 120.095 104.616 120.095 102.333C120.095 100.439 119.464 98.9332 118.201 97.816C116.987 96.6503 115.287 96.0675 113.101 96.0675C110.721 96.0675 108.851 96.7717 107.491 98.1803C106.18 99.5889 105.451 101.313 105.305 103.353H96.1982C96.3925 98.6417 98.0196 94.926 101.08 92.2061C104.188 89.4861 108.195 88.1261 113.101 88.1261C116.598 88.1261 119.537 88.7575 121.917 90.0204C124.345 91.2346 126.167 92.8618 127.381 94.9018C128.644 96.9417 129.275 99.2003 129.275 101.677C129.275 104.543 128.474 106.972 126.871 108.963C125.317 110.906 123.374 112.217 121.042 112.897C123.908 113.48 126.239 114.889 128.037 117.123C129.834 119.309 130.732 122.077 130.732 125.429C130.732 128.246 130.052 130.82 128.692 133.151C127.332 135.483 125.341 137.353 122.718 138.761C120.144 140.17 116.962 140.874 113.174 140.874ZM149.742 114.063C147.41 114.063 145.297 113.553 143.403 112.533C141.509 111.464 140.003 109.959 138.886 108.016C137.769 106.073 137.21 103.766 137.21 101.095C137.21 98.4232 137.769 96.116 138.886 94.1732C140.003 92.2304 141.509 90.7489 143.403 89.7289C145.297 88.6604 147.434 88.1261 149.814 88.1261C152.146 88.1261 154.234 88.6604 156.08 89.7289C157.974 90.7489 159.48 92.2304 160.597 94.1732C161.714 96.116 162.273 98.4232 162.273 101.095C162.273 103.766 161.714 106.073 160.597 108.016C159.48 109.959 157.974 111.464 156.08 112.533C154.186 113.553 152.073 114.063 149.742 114.063ZM146.973 140L175.751 89.0004H184.858L156.08 140H146.973ZM149.742 107.579C151.15 107.579 152.364 107.045 153.384 105.976C154.404 104.859 154.914 103.232 154.914 101.095C154.914 98.9574 154.404 97.3303 153.384 96.2132C152.413 95.096 151.199 94.5375 149.742 94.5375C148.284 94.5375 147.046 95.096 146.026 96.2132C145.054 97.3303 144.569 98.9574 144.569 101.095C144.569 103.232 145.054 104.859 146.026 105.976C147.046 107.045 148.284 107.579 149.742 107.579ZM182.381 140.874C180.05 140.874 177.937 140.364 176.043 139.344C174.149 138.276 172.643 136.77 171.526 134.827C170.409 132.884 169.85 130.577 169.85 127.906C169.85 125.234 170.409 122.952 171.526 121.057C172.643 119.114 174.149 117.633 176.043 116.613C177.937 115.544 180.074 115.01 182.454 115.01C184.786 115.01 186.874 115.544 188.72 116.613C190.614 117.633 192.12 119.114 193.237 121.057C194.354 122.952 194.913 125.234 194.913 127.906C194.913 130.577 194.354 132.884 193.237 134.827C192.12 136.77 190.614 138.276 188.72 139.344C186.874 140.364 184.761 140.874 182.381 140.874ZM182.381 134.39C183.838 134.39 185.053 133.856 186.024 132.787C187.044 131.67 187.554 130.043 187.554 127.906C187.554 125.769 187.044 124.142 186.024 123.024C185.053 121.907 183.838 121.349 182.381 121.349C180.924 121.349 179.686 121.907 178.666 123.024C177.694 124.142 177.208 125.769 177.208 127.906C177.208 130.043 177.694 131.67 178.666 132.787C179.686 133.856 180.924 134.39 182.381 134.39Z" fill="url(#paint1_linear_102_3127)"/>
</g>
<path opacity="0.4" d="M244.087 213.802H331.92C333.987 213.802 336.054 212.252 336.054 209.668C336.054 207.085 334.504 205.535 331.92 205.535H244.087C242.02 205.535 239.954 207.085 239.954 209.668C239.954 212.252 242.02 213.802 244.087 213.802Z" fill="#62AE6E"/>
<path d="M251.846 190.035C252.879 190.035 253.912 189.519 254.429 189.002L326.762 116.669C328.312 115.119 328.312 113.052 326.762 111.502C325.212 109.952 322.629 109.952 321.079 111.502L248.746 183.835C247.196 185.385 247.196 187.969 248.746 189.519C249.779 190.035 250.812 190.035 251.846 190.035Z" fill="#62AE6E"/>
<path d="M324.173 170.917C326.24 170.917 328.307 169.367 328.307 166.784V114.084C328.307 112.017 326.757 109.95 324.173 109.95H270.957C268.89 109.95 266.823 111.5 266.823 114.084C266.823 116.667 268.373 118.217 270.957 118.217H320.04V167.3C320.04 169.367 322.107 170.917 324.173 170.917Z" fill="#62AE6E"/>
<defs>
<filter id="filter0_d_102_3127" x="0.00813293" y="0.80488" width="242.984" height="242.984" filterUnits="userSpaceOnUse" color-interpolation-filters="sRGB">
<feFlood flood-opacity="0" result="BackgroundImageFix"/>
<feColorMatrix in="SourceAlpha" type="matrix" values="0 0 0 0 0 0 0 0 0 0 0 0 0 0 0 0 0 0 127 0" result="hardAlpha"/>
<feOffset dy="6.79675"/>
<feGaussianBlur stdDeviation="8.49593"/>
<feComposite in2="hardAlpha" operator="out"/>
<feColorMatrix type="matrix" values="0 0 0 0 0 0 0 0 0 0 0 0 0 0 0 0 0 0 0.13 0"/>
<feBlend mode="normal" in2="BackgroundImageFix" result="effect1_dropShadow_102_3127"/>
<feBlend mode="normal" in="SourceGraphic" in2="effect1_dropShadow_102_3127" result="shape"/>
</filter>
<linearGradient id="paint0_linear_102_3127" x1="121.5" y1="11" x2="121.5" y2="220" gradientUnits="userSpaceOnUse">
<stop stop-color="#62AE6E"/>
</linearGradient>
<linearGradient id="paint1_linear_102_3127" x1="122" y1="66" x2="122" y2="165" gradientUnits="userSpaceOnUse">
<stop stop-color="#62AE6E"/>
</linearGradient>
</defs>
</svg>
