<svg width="71" height="11" viewBox="0 0 71 11" fill="none" xmlns="http://www.w3.org/2000/svg">
<path d="M58.2186 0.641815L58.3523 8.47026H58.2855L56.0189 0.644722H52.2906V10.5015H54.7548L54.6212 2.40859H54.688L57.1173 10.5015H60.6828V0.644722L58.2186 0.641815ZM11.2887 0.641815L9.42601 10.6032H12.1227L13.4884 1.54264H13.5553L14.8891 10.6032H17.5508L15.7201 0.644722L11.2887 0.641815ZM26.344 0.641815L25.1119 8.23779H25.0451L23.813 0.644722H19.7535L19.553 10.6032H22.0521L22.1189 1.64434H22.1509L23.8159 10.6032H26.3469L28.012 1.64434H28.0788L28.1457 10.6032H30.6447L30.4123 0.644722L26.344 0.641815ZM5.22992 7.77285C5.30566 8.00973 5.3167 8.26255 5.26188 8.50513C5.19504 8.8364 4.96257 9.17058 4.29713 9.17058C3.66365 9.17058 3.2975 8.80443 3.2975 8.26975V7.305H0.632812V8.07215C0.632812 10.3039 2.39668 10.9693 4.26516 10.9693C6.061 10.9693 7.56043 10.3358 7.7929 8.70273C7.92657 7.83678 7.82777 7.27304 7.7929 7.07253C7.32796 4.97448 3.52997 4.37297 3.26263 3.20771C3.22938 3.03201 3.22938 2.85163 3.26263 2.67593C3.32947 2.34175 3.56485 2.00758 4.16346 2.00758C4.76207 2.00758 5.09334 2.37663 5.09334 2.9084V3.50701H7.5924V2.8096C7.5924 0.644722 5.62802 0.310547 4.23029 0.310547C2.46352 0.310547 0.998953 0.909158 0.731612 2.5103C0.644159 2.95101 0.656071 3.40567 0.766483 3.84119C1.16459 5.90436 4.7301 6.50588 5.22992 7.76994M37.6363 7.76994C37.7351 8.00241 37.7002 8.30462 37.6683 8.50513C37.6014 8.8364 37.3689 9.17058 36.7035 9.17058C36.07 9.17058 35.7039 8.80443 35.7039 8.26975V7.305H33.0392V8.07215C33.0392 10.269 34.7711 10.9344 36.6367 10.9344C38.4354 10.9344 39.9 10.3358 40.1324 8.67076C40.2661 7.80481 40.1673 7.27303 40.1324 7.03766C39.7343 4.97448 35.9683 4.341 35.7039 3.20771C35.6703 3.03204 35.6703 2.8516 35.7039 2.67593C35.7707 2.34175 36.0032 2.00758 36.6047 2.00758C37.1684 2.00758 37.5346 2.37663 37.5346 2.9084V3.50701H39.9988V2.8096C39.9988 0.644722 38.0664 0.310547 36.6686 0.310547C34.9048 0.310547 33.4722 0.877194 33.2048 2.5103C33.138 2.94327 33.138 3.34138 33.2397 3.84119C33.6378 5.90436 37.1336 6.47101 37.6363 7.76994ZM46.0285 9.10374C46.7259 9.10374 46.9293 8.6388 46.9932 8.37146C47.0281 8.26975 47.0281 8.10412 47.0281 8.00532V0.641815H49.5562V7.80191C49.5562 8.00241 49.5562 8.36855 49.5272 8.47026C49.3586 10.3329 47.8941 10.9315 46.0604 10.9315C44.2297 10.9315 42.7652 10.3329 42.5966 8.46735C42.5966 8.36855 42.5647 8.00241 42.5647 7.80191V0.641815H45.0928V8.00241C45.0928 8.13608 45.0928 8.26685 45.1277 8.36855C45.1277 8.63299 45.3311 9.10083 46.0285 9.10083M66.8113 9.00203C67.5436 9.00203 67.7761 8.53709 67.8429 8.26685C67.8749 8.16805 67.8749 8.00241 67.8749 7.9007V6.46811H66.8433V5.00354H70.3739V7.66823C70.3739 7.86874 70.3739 8.00241 70.342 8.33659C70.1734 10.1673 68.6072 10.7979 66.8433 10.7979C65.0794 10.7979 63.5132 10.1673 63.3475 8.33368C63.3127 8.00241 63.3126 7.86874 63.3126 7.66823V3.47214C63.3126 3.30651 63.3475 2.97233 63.3475 2.80379C63.58 0.941122 65.0794 0.342511 66.8433 0.342511C68.6072 0.342511 70.1415 0.941121 70.3391 2.8067C70.3739 3.106 70.3739 3.47214 70.3739 3.47214V3.80632H67.8749V3.23967C67.8749 3.23967 67.8749 3.0072 67.8429 2.87353C67.808 2.64106 67.6104 2.14125 66.8433 2.14125C66.111 2.14125 65.9134 2.60619 65.8437 2.87353C65.8117 3.0043 65.8117 3.17284 65.8117 3.33847V7.9007C65.8117 8.03438 65.8117 8.16805 65.8437 8.26685C65.8437 8.53419 66.111 9.00203 66.8113 9.00203Z" fill="#A9A9B9"/>
</svg>
