<svg width="47" height="47" viewBox="0 0 47 47" fill="none" xmlns="http://www.w3.org/2000/svg">
<path d="M37.208 44.5519C36.4051 44.5519 35.7393 43.8861 35.7393 43.0832V21.5415C35.7393 20.7386 36.4051 20.0728 37.208 20.0728C38.0109 20.0728 38.6768 20.7386 38.6768 21.5415V43.0832C38.6768 43.8861 38.0109 44.5519 37.208 44.5519Z" fill="url(#paint0_linear_102_3283)"/>
<path d="M37.208 15.1769C36.4051 15.1769 35.7393 14.5111 35.7393 13.7082V3.9165C35.7393 3.11359 36.4051 2.44775 37.208 2.44775C38.0109 2.44775 38.6768 3.11359 38.6768 3.9165V13.7082C38.6768 14.5111 38.0109 15.1769 37.208 15.1769Z" fill="url(#paint1_linear_102_3283)"/>
<path d="M23.5 44.5519C22.6971 44.5519 22.0312 43.8861 22.0312 43.0832V33.2915C22.0312 32.4886 22.6971 31.8228 23.5 31.8228C24.3029 31.8228 24.9688 32.4886 24.9688 33.2915V43.0832C24.9688 43.8861 24.3029 44.5519 23.5 44.5519Z" fill="url(#paint2_linear_102_3283)"/>
<path d="M23.5 26.9269C22.6971 26.9269 22.0312 26.2611 22.0312 25.4582V3.9165C22.0312 3.11359 22.6971 2.44775 23.5 2.44775C24.3029 2.44775 24.9688 3.11359 24.9688 3.9165V25.4582C24.9688 26.2611 24.3029 26.9269 23.5 26.9269Z" fill="url(#paint3_linear_102_3283)"/>
<path d="M9.79199 44.5519C8.98908 44.5519 8.32324 43.8861 8.32324 43.0832V21.5415C8.32324 20.7386 8.98908 20.0728 9.79199 20.0728C10.5949 20.0728 11.2607 20.7386 11.2607 21.5415V43.0832C11.2607 43.8861 10.5949 44.5519 9.79199 44.5519Z" fill="url(#paint4_linear_102_3283)"/>
<path d="M9.79199 15.1769C8.98908 15.1769 8.32324 14.5111 8.32324 13.7082V3.9165C8.32324 3.11359 8.98908 2.44775 9.79199 2.44775C10.5949 2.44775 11.2607 3.11359 11.2607 3.9165V13.7082C11.2607 14.5111 10.5949 15.1769 9.79199 15.1769Z" fill="url(#paint5_linear_102_3283)"/>
<path d="M13.7083 23.0103H5.875C5.07208 23.0103 4.40625 22.3444 4.40625 21.5415C4.40625 20.7386 5.07208 20.0728 5.875 20.0728H13.7083C14.5113 20.0728 15.1771 20.7386 15.1771 21.5415C15.1771 22.3444 14.5113 23.0103 13.7083 23.0103Z" fill="url(#paint6_linear_102_3283)"/>
<path d="M41.1253 23.0103H33.292C32.4891 23.0103 31.8232 22.3444 31.8232 21.5415C31.8232 20.7386 32.4891 20.0728 33.292 20.0728H41.1253C41.9282 20.0728 42.5941 20.7386 42.5941 21.5415C42.5941 22.3444 41.9282 23.0103 41.1253 23.0103Z" fill="url(#paint7_linear_102_3283)"/>
<path d="M27.4163 26.9272H19.583C18.7801 26.9272 18.1143 26.2614 18.1143 25.4585C18.1143 24.6556 18.7801 23.9897 19.583 23.9897H27.4163C28.2193 23.9897 28.8851 24.6556 28.8851 25.4585C28.8851 26.2614 28.2193 26.9272 27.4163 26.9272Z" fill="url(#paint8_linear_102_3283)"/>
<defs>
<linearGradient id="paint0_linear_102_3283" x1="37.208" y1="20.0728" x2="37.208" y2="44.5519" gradientUnits="userSpaceOnUse">
<stop offset="1" stop-color="#704AF2"/>
</linearGradient>
<linearGradient id="paint1_linear_102_3283" x1="37.208" y1="2.44775" x2="37.208" y2="15.1769" gradientUnits="userSpaceOnUse">
<stop offset="1" stop-color="#704AF2"/>
</linearGradient>
<linearGradient id="paint2_linear_102_3283" x1="23.5" y1="31.8228" x2="23.5" y2="44.5519" gradientUnits="userSpaceOnUse">
<stop offset="1" stop-color="#704AF2"/>
</linearGradient>
<linearGradient id="paint3_linear_102_3283" x1="23.5" y1="2.44775" x2="23.5" y2="26.9269" gradientUnits="userSpaceOnUse">
<stop offset="1" stop-color="#704AF2"/>
</linearGradient>
<linearGradient id="paint4_linear_102_3283" x1="9.79199" y1="20.0728" x2="9.79199" y2="44.5519" gradientUnits="userSpaceOnUse">
<stop offset="1" stop-color="#704AF2"/>
</linearGradient>
<linearGradient id="paint5_linear_102_3283" x1="9.79199" y1="2.44775" x2="9.79199" y2="15.1769" gradientUnits="userSpaceOnUse">
<stop offset="1" stop-color="#704AF2"/>
</linearGradient>
<linearGradient id="paint6_linear_102_3283" x1="9.79167" y1="20.0728" x2="9.79167" y2="23.0103" gradientUnits="userSpaceOnUse">
<stop offset="1" stop-color="#704AF2"/>
</linearGradient>
<linearGradient id="paint7_linear_102_3283" x1="37.2087" y1="20.0728" x2="37.2087" y2="23.0103" gradientUnits="userSpaceOnUse">
<stop offset="1" stop-color="#704AF2"/>
</linearGradient>
<linearGradient id="paint8_linear_102_3283" x1="23.4997" y1="23.9897" x2="23.4997" y2="26.9272" gradientUnits="userSpaceOnUse">
<stop offset="1" stop-color="#704AF2"/>
</linearGradient>
</defs>
</svg>
