<svg width="50" height="50" viewBox="0 0 50 50" fill="none" xmlns="http://www.w3.org/2000/svg">
<path d="M35.3535 25.521V34.896C35.3535 42.7085 32.2285 45.8335 24.416 45.8335H15.041C7.22852 45.8335 4.10352 42.7085 4.10352 34.896V25.521C4.10352 17.7085 7.22852 14.5835 15.041 14.5835H24.416C32.2285 14.5835 35.3535 17.7085 35.3535 25.521Z" stroke="#DF5E63" stroke-width="3.125" stroke-linecap="round" stroke-linejoin="round"/>
<path d="M45.7712 15.6248C45.7712 21.604 41.2087 26.4998 35.3545 27.0207V25.5207C35.3545 17.7082 32.2295 14.5832 24.417 14.5832H22.917C23.4378 8.729 28.3337 4.1665 34.3128 4.1665C40.1253 4.1665 44.917 8.479 45.6462 14.104C45.7295 14.5832 45.7712 15.104 45.7712 15.6248Z" stroke="#DF5E63" stroke-width="3.125" stroke-linecap="round" stroke-linejoin="round"/>
</svg>
