<svg width="179" height="47" viewBox="0 0 179 47" fill="none" xmlns="http://www.w3.org/2000/svg">
<path d="M57.4538 36.4578L59.6867 31.2635C62.0978 33.0678 65.2955 34.0044 68.4579 34.0044C70.8002 34.0044 72.2677 33.1031 72.2677 31.7309C72.2324 27.9141 58.281 30.9037 58.1787 21.3141C58.1434 16.4496 62.4558 12.6945 68.5673 12.6945C72.1989 12.6945 75.8287 13.5976 78.4197 15.6577L76.3332 20.956C73.9627 19.4392 71.0136 18.358 68.2093 18.358C66.3008 18.358 65.0468 19.261 65.0468 20.411C65.0821 24.159 79.1358 22.106 79.2804 31.2635C79.2804 36.2373 75.0791 39.7366 69.0365 39.7366C64.6129 39.7366 60.5474 38.6925 57.4538 36.4578ZM142.997 29.3886C142.3 30.6315 141.21 31.6077 139.898 32.1642C138.586 32.7206 137.127 32.8258 135.749 32.4631C134.371 32.1005 133.152 31.2905 132.284 30.1604C131.416 29.0303 130.948 27.644 130.954 26.2191C130.951 25.3723 131.116 24.5335 131.438 23.7505C131.761 22.9675 132.234 22.2558 132.832 21.6561C133.43 21.0565 134.14 20.5807 134.922 20.2559C135.704 19.9312 136.543 19.7639 137.389 19.7637C139.794 19.7637 141.882 21.1006 142.998 23.0443L149.143 19.6191C146.842 15.513 142.418 12.6945 137.389 12.6945C129.941 12.6945 123.905 18.7584 123.905 26.2191C123.905 33.6798 129.941 39.7366 137.389 39.7366C139.789 39.7418 142.147 39.1018 144.214 37.8836C146.282 36.6654 147.985 34.9138 149.143 32.8121L142.997 29.3886ZM82.3741 1.48403H90.0711V39.2339H82.3741V1.48403ZM152.168 1.48403V39.2339H159.856V27.9141L168.993 39.2339H178.845L167.229 25.7852L177.983 13.2395H168.559L159.856 23.6564V1.4858H152.166L152.168 1.48403ZM112.937 29.4644C111.822 31.304 109.52 32.6674 106.929 32.6674C106.083 32.667 105.246 32.4998 104.464 32.1754C103.683 31.851 102.973 31.3757 102.376 30.7769C101.778 30.178 101.304 29.4672 100.982 28.6852C100.659 27.9031 100.494 27.0651 100.495 26.2191C100.493 25.3727 100.659 24.5343 100.981 23.7517C101.304 22.9691 101.777 22.2578 102.375 21.6583C102.972 21.0588 103.682 20.583 104.463 20.2579C105.245 19.9328 106.083 19.7649 106.929 19.7637C109.52 19.7637 111.822 21.2029 112.937 23.0778V29.4644ZM112.937 13.2378V16.3067C111.677 14.1761 108.548 12.6945 105.277 12.6945C98.5178 12.6945 93.1983 18.6825 93.1983 26.1785C93.1983 33.6816 98.5178 39.7366 105.277 39.7366C108.548 39.7366 111.677 38.255 112.937 36.1332V39.2004H120.634V13.2378H112.937ZM9.88854 29.4221C9.88854 32.0554 7.76673 34.1843 5.14048 34.1843C4.51598 34.1838 3.8977 34.0602 3.32102 33.8205C2.74435 33.5808 2.2206 33.2298 1.77975 32.7875C1.3389 32.3451 0.989604 31.8202 0.75185 31.2428C0.514097 30.6653 0.392554 30.0466 0.394177 29.4221C0.393017 28.7981 0.514941 28.1801 0.752967 27.6033C0.990993 27.0266 1.34045 26.5024 1.78132 26.0609C2.22219 25.6194 2.74583 25.2691 3.32224 25.0302C3.89865 24.7914 4.51652 24.6685 5.14048 24.6688H9.88854V29.4221ZM12.2573 29.4221C12.2561 28.798 12.3781 28.1798 12.6162 27.6029C12.8544 27.026 13.204 26.5018 13.645 26.0603C14.0861 25.6187 14.6099 25.2685 15.1866 25.0297C15.7632 24.791 16.3812 24.6683 17.0053 24.6688C17.6294 24.6685 18.2474 24.7914 18.824 25.0304C19.4005 25.2694 19.9242 25.6198 20.3651 26.0615C20.806 26.5032 21.1554 27.0276 21.3934 27.6045C21.6313 28.1815 21.753 28.7998 21.7516 29.4239V41.3222C21.753 41.9466 21.6313 42.5651 21.3935 43.1423C21.1556 43.7196 20.8063 44.2443 20.3654 44.6865C19.9246 45.1286 19.4009 45.4795 18.8244 45.7191C18.2478 45.9586 17.6297 46.0822 17.0053 46.0826C16.3807 46.0824 15.7622 45.959 15.1853 45.7194C14.6085 45.4798 14.0845 45.1288 13.6435 44.6865C13.2024 44.2441 12.853 43.7191 12.6151 43.1415C12.3773 42.564 12.2557 41.9451 12.2573 41.3205V29.4221ZM17.0053 10.3187C16.3807 10.3185 15.7622 10.1951 15.1853 9.9555C14.6085 9.71593 14.0845 9.36491 13.6435 8.92256C13.2024 8.48022 12.853 7.95522 12.6151 7.37763C12.3773 6.80005 12.2557 6.18122 12.2573 5.55658C12.2561 4.93248 12.3781 4.31428 12.6162 3.73739C12.8544 3.16051 13.204 2.63628 13.645 2.19473C14.0861 1.75318 14.6099 1.40299 15.1866 1.16421C15.7632 0.925429 16.3812 0.802759 17.0053 0.803224C17.6293 0.802991 18.2472 0.925829 18.8236 1.16471C19.4 1.40359 19.9236 1.75383 20.3645 2.19536C20.8054 2.63689 21.1548 3.16104 21.3928 3.7378C21.6309 4.31457 21.7528 4.93262 21.7516 5.55658V10.3187H17.0053ZM17.0053 12.7369C17.6293 12.7366 18.2472 12.8595 18.8236 13.0984C19.4 13.3372 19.9236 13.6875 20.3645 14.129C20.8054 14.5705 21.1548 15.0947 21.3928 15.6714C21.6309 16.2482 21.7528 16.8663 21.7516 17.4902C21.7516 20.1218 19.6298 22.2524 17.0053 22.2524H5.10696C4.48232 22.2522 3.86385 22.1287 3.28697 21.8891C2.71009 21.6496 2.18613 21.2986 1.7451 20.8562C1.30406 20.4139 0.954606 19.8889 0.716742 19.3113C0.478879 18.7337 0.357279 18.1149 0.358903 17.4902C0.357743 16.8661 0.479723 16.2479 0.717859 15.671C0.955996 15.0942 1.30561 14.5699 1.74667 14.1284C2.18773 13.6868 2.71157 13.3366 3.28819 13.0979C3.8648 12.8591 4.48286 12.7364 5.10696 12.7369H17.0053ZM36.0276 17.4902C36.0264 16.8663 36.1483 16.2482 36.3864 15.6714C36.6244 15.0947 36.9738 14.5705 37.4147 14.129C37.8556 13.6875 38.3792 13.3372 38.9556 13.0984C39.532 12.8595 40.1499 12.7366 40.7739 12.7369C41.398 12.7364 42.016 12.8591 42.5926 13.0979C43.1693 13.3366 43.6931 13.6868 44.1342 14.1284C44.5752 14.5699 44.9248 15.0942 45.163 15.671C45.4011 16.2479 45.5231 16.8661 45.5219 17.4902C45.5219 20.1218 43.4001 22.2524 40.7739 22.2524H36.0276V17.4902ZM33.6571 17.4902C33.6571 20.1218 31.5352 22.2524 28.9108 22.2524C28.2861 22.2522 27.6676 22.1287 27.0908 21.8891C26.5139 21.6496 25.9899 21.2986 25.5489 20.8562C25.1079 20.4139 24.7584 19.8889 24.5205 19.3113C24.2827 18.7337 24.1611 18.1149 24.1627 17.4902V5.55658C24.1615 4.93248 24.2835 4.31428 24.5217 3.73739C24.7598 3.16051 25.1094 2.63628 25.5505 2.19473C25.9915 1.75318 26.5154 1.40299 27.092 1.16421C27.6686 0.925429 28.2867 0.802759 28.9108 0.803224C29.5347 0.802991 30.1526 0.925829 30.729 1.16471C31.3054 1.40359 31.829 1.75383 32.2699 2.19536C32.7108 2.63689 33.0602 3.16104 33.2983 3.7378C33.5363 4.31457 33.6582 4.93262 33.6571 5.55658V17.4902ZM28.9108 36.5671C29.5349 36.5669 30.1529 36.6898 30.7294 36.9288C31.3059 37.1678 31.8296 37.5182 32.2705 37.9599C32.7114 38.4016 33.0609 38.926 33.2988 39.5029C33.5367 40.0799 33.6584 40.6981 33.6571 41.3222C33.6584 41.9466 33.5367 42.5651 33.2989 43.1423C33.061 43.7196 32.7117 44.2443 32.2709 44.6865C31.83 45.1286 31.3064 45.4795 30.7298 45.7191C30.1532 45.9586 29.5351 46.0822 28.9108 46.0826C28.2861 46.0824 27.6676 45.959 27.0908 45.7194C26.5139 45.4798 25.9899 45.1288 25.5489 44.6865C25.1079 44.2441 24.7584 43.7191 24.5205 43.1415C24.2827 42.564 24.1611 41.9451 24.1627 41.3205V36.5671H28.9108ZM28.9108 34.1843C28.2861 34.184 27.6676 34.0606 27.0908 33.821C26.5139 33.5815 25.9899 33.2304 25.5489 32.7881C25.1079 32.3457 24.7584 31.8208 24.5205 31.2432C24.2827 30.6656 24.1611 30.0467 24.1627 29.4221C24.1615 28.798 24.2835 28.1798 24.5217 27.6029C24.7598 27.026 25.1094 26.5018 25.5505 26.0603C25.9915 25.6187 26.5154 25.2685 27.092 25.0297C27.6686 24.791 28.2867 24.6683 28.9108 24.6688H40.8091C41.4332 24.6685 42.0513 24.7914 42.6278 25.0304C43.2043 25.2694 43.728 25.6198 44.1689 26.0615C44.6098 26.5032 44.9592 27.0276 45.1971 27.6045C45.4351 28.1815 45.5568 28.7998 45.5554 29.4239C45.5568 30.0482 45.4351 30.6667 45.1973 31.244C44.9594 31.8213 44.6101 32.346 44.1692 32.7881C43.7284 33.2302 43.2047 33.5811 42.6282 33.8207C42.0516 34.0603 41.4335 34.1838 40.8091 34.1843H28.9108Z" fill="#A9A9B9"/>
</svg>
