<svg width="203" height="203" viewBox="0 0 203 203" fill="none" xmlns="http://www.w3.org/2000/svg">
<g filter="url(#filter0_d_1_1288)">
<rect x="25.5" y="25.5" width="152" height="152" rx="76" fill="white"/>
<path d="M79.5662 110.272L81.055 106.808C82.6625 108.011 84.7944 108.636 86.9029 108.636C88.4645 108.636 89.4429 108.035 89.4429 107.12C89.4194 104.575 80.1177 106.569 80.0495 100.175C80.026 96.9317 82.9012 94.4282 86.9758 94.4282C89.397 94.4282 91.8171 95.0302 93.5446 96.4037L92.1534 99.9362C90.573 98.9249 88.6068 98.2041 86.7371 98.2041C85.4647 98.2041 84.6286 98.8062 84.6286 99.5729C84.6521 102.072 94.022 100.703 94.1184 106.808C94.1184 110.125 91.3174 112.458 87.2886 112.458C84.3393 112.458 81.6288 111.761 79.5662 110.272ZM136.599 105.558C136.134 106.387 135.408 107.038 134.533 107.409C133.659 107.78 132.686 107.85 131.767 107.608C130.848 107.366 130.036 106.826 129.457 106.073C128.878 105.32 128.566 104.395 128.57 103.445C128.568 102.881 128.678 102.321 128.893 101.799C129.108 101.277 129.424 100.803 129.822 100.403C130.221 100.003 130.695 99.686 131.216 99.4695C131.737 99.253 132.296 99.1415 132.861 99.1413C134.464 99.1413 135.856 100.033 136.6 101.329L140.697 99.0449C139.163 96.3073 136.213 94.4282 132.861 94.4282C127.895 94.4282 123.871 98.471 123.871 103.445C123.871 108.419 127.895 112.458 132.861 112.458C134.461 112.461 136.032 112.034 137.411 111.222C138.79 110.41 139.925 109.242 140.697 107.841L136.599 105.558ZM96.181 86.9539H101.313V112.122H96.181V86.9539ZM142.714 86.9539V112.122H147.84V104.575L153.931 112.122H160.5L152.755 103.156L159.925 94.7915H153.642L147.84 101.737V86.9551H142.713L142.714 86.9539ZM116.558 105.609C115.814 106.835 114.28 107.744 112.552 107.744C111.988 107.744 111.43 107.633 110.909 107.416C110.388 107.2 109.915 106.883 109.516 106.484C109.118 106.085 108.802 105.611 108.587 105.089C108.372 104.568 108.262 104.009 108.263 103.445C108.262 102.881 108.372 102.322 108.587 101.8C108.802 101.278 109.117 100.804 109.516 100.404C109.914 100.005 110.387 99.6875 110.908 99.4708C111.429 99.254 111.988 99.1421 112.552 99.1413C114.28 99.1413 115.814 100.101 116.558 101.351V105.609ZM116.558 94.7903V96.8365C115.718 95.4159 113.632 94.4282 111.451 94.4282C106.944 94.4282 103.398 98.4205 103.398 103.418C103.398 108.421 106.944 112.458 111.451 112.458C113.632 112.458 115.718 111.47 116.558 110.055V112.1H121.689V94.7903H116.558ZM47.8536 105.581C47.8536 107.336 46.4389 108.756 44.688 108.756C44.2716 108.755 43.8594 108.673 43.4749 108.513C43.0904 108.353 42.7412 108.119 42.4473 107.824C42.1534 107.53 41.9205 107.18 41.762 106.795C41.6035 106.41 41.5224 105.997 41.5235 105.581C41.5228 105.165 41.604 104.753 41.7627 104.368C41.9214 103.984 42.1544 103.634 42.4484 103.34C42.7423 103.045 43.0914 102.812 43.4757 102.653C43.86 102.493 44.272 102.411 44.688 102.412H47.8536V105.581ZM49.4329 105.581C49.4321 105.165 49.5134 104.752 49.6722 104.368C49.831 103.983 50.0641 103.634 50.3581 103.339C50.6522 103.045 51.0014 102.811 51.3859 102.652C51.7703 102.493 52.1824 102.411 52.5985 102.412C53.0146 102.411 53.4266 102.493 53.811 102.653C54.1954 102.812 54.5446 103.046 54.8385 103.34C55.1325 103.635 55.3654 103.984 55.5241 104.369C55.6827 104.754 55.7639 105.166 55.7629 105.582V113.515C55.7639 113.931 55.6827 114.343 55.5241 114.728C55.3655 115.113 55.1326 115.463 54.8387 115.758C54.5448 116.053 54.1957 116.286 53.8113 116.446C53.4269 116.606 53.0148 116.688 52.5985 116.689C52.182 116.688 51.7697 116.606 51.3851 116.446C51.0005 116.287 50.6511 116.053 50.3571 115.758C50.063 115.463 49.83 115.113 49.6715 114.728C49.5129 114.343 49.4318 113.93 49.4329 113.514V105.581ZM52.5985 92.8442C52.182 92.844 51.7697 92.7617 51.3851 92.602C51.0005 92.4423 50.6511 92.2082 50.3571 91.9133C50.063 91.6184 49.83 91.2684 49.6715 90.8833C49.5129 90.4982 49.4318 90.0856 49.4329 89.6691C49.4321 89.253 49.5134 88.8409 49.6722 88.4563C49.831 88.0716 50.0641 87.7221 50.3581 87.4277C50.6522 87.1334 51.0014 86.8999 51.3859 86.7407C51.7703 86.5815 52.1824 86.4997 52.5985 86.5C53.0145 86.4998 53.4264 86.5817 53.8107 86.741C54.195 86.9003 54.5442 87.1338 54.8381 87.4282C55.132 87.7225 55.365 88.072 55.5237 88.4565C55.6824 88.8411 55.7637 89.2531 55.7629 89.6691V92.8442H52.5985ZM52.5985 94.4564C53.0145 94.4562 53.4264 94.5381 53.8107 94.6974C54.195 94.8567 54.5442 95.0902 54.8381 95.3845C55.132 95.6789 55.365 96.0284 55.5237 96.4129C55.6824 96.7975 55.7637 97.2095 55.7629 97.6255C55.7629 99.38 54.3483 100.801 52.5985 100.801H44.6656C44.2492 100.8 43.8368 100.718 43.4522 100.558C43.0676 100.399 42.7183 100.165 42.4242 99.8697C42.1302 99.5748 41.8972 99.2248 41.7386 98.8397C41.58 98.4546 41.4989 98.042 41.5 97.6255C41.4992 97.2094 41.5806 96.7973 41.7393 96.4126C41.8981 96.028 42.1312 95.6785 42.4253 95.3841C42.7193 95.0897 43.0686 94.8563 43.453 94.6971C43.8375 94.5379 44.2495 94.4561 44.6656 94.4564H52.5985ZM65.281 97.6255C65.2802 97.2095 65.3615 96.7975 65.5202 96.4129C65.6789 96.0284 65.9119 95.6789 66.2058 95.3845C66.4997 95.0902 66.8488 94.8567 67.2332 94.6974C67.6175 94.5381 68.0294 94.4562 68.4454 94.4564C68.8615 94.4561 69.2736 94.5379 69.658 94.6971C70.0425 94.8563 70.3917 95.0897 70.6858 95.3841C70.9798 95.6785 71.2129 96.028 71.3717 96.4126C71.5305 96.7973 71.6118 97.2094 71.611 97.6255C71.611 99.38 70.1964 100.801 68.4454 100.801H65.281V97.6255ZM63.7005 97.6255C63.7005 99.38 62.2859 100.801 60.5361 100.801C60.1196 100.8 59.7073 100.718 59.3226 100.558C58.938 100.399 58.5887 100.165 58.2946 99.8697C58.0006 99.5748 57.7676 99.2248 57.609 98.8397C57.4504 98.4546 57.3694 98.042 57.3704 97.6255V89.6691C57.3697 89.253 57.451 88.8409 57.6098 88.4563C57.7685 88.0716 58.0016 87.7221 58.2957 87.4277C58.5898 87.1334 58.939 86.8999 59.3234 86.7407C59.7079 86.5815 60.12 86.4997 60.5361 86.5C60.9521 86.4998 61.364 86.5817 61.7483 86.741C62.1326 86.9003 62.4817 87.1338 62.7757 87.4282C63.0696 87.7225 63.3026 88.072 63.4613 88.4565C63.62 88.8411 63.7013 89.2531 63.7005 89.6691V97.6255ZM60.5361 110.344C60.9522 110.344 61.3642 110.426 61.7486 110.586C62.133 110.745 62.4821 110.979 62.7761 111.273C63.07 111.568 63.303 111.917 63.4616 112.302C63.6203 112.686 63.7014 113.099 63.7005 113.515C63.7014 113.931 63.6203 114.343 63.4617 114.728C63.3031 115.113 63.0702 115.463 62.7763 115.758C62.4824 116.053 62.1332 116.286 61.7488 116.446C61.3644 116.606 60.9523 116.688 60.5361 116.689C60.1196 116.688 59.7073 116.606 59.3226 116.446C58.938 116.287 58.5887 116.053 58.2946 115.758C58.0006 115.463 57.7676 115.113 57.609 114.728C57.4504 114.343 57.3694 113.93 57.3704 113.514V110.344H60.5361ZM60.5361 108.756C60.1196 108.756 59.7073 108.673 59.3226 108.514C58.938 108.354 58.5887 108.12 58.2946 107.825C58.0006 107.53 57.7676 107.18 57.609 106.795C57.4504 106.41 57.3694 105.997 57.3704 105.581C57.3697 105.165 57.451 104.752 57.6098 104.368C57.7685 103.983 58.0016 103.634 58.2957 103.339C58.5898 103.045 58.939 102.811 59.3234 102.652C59.7079 102.493 60.12 102.411 60.5361 102.412H68.4689C68.885 102.411 69.2971 102.493 69.6814 102.653C70.0658 102.812 70.415 103.046 70.7089 103.34C71.0029 103.635 71.2359 103.984 71.3945 104.369C71.5531 104.754 71.6343 105.166 71.6334 105.582C71.6343 105.998 71.5531 106.411 71.3946 106.795C71.236 107.18 71.0031 107.53 70.7092 107.825C70.4153 108.12 70.0661 108.354 69.6817 108.513C69.2973 108.673 68.8852 108.755 68.4689 108.756H60.5361Z" fill="#A9A9B9"/>
</g>
<defs>
<filter id="filter0_d_1_1288" x="0.5" y="0.5" width="202" height="202" filterUnits="userSpaceOnUse" color-interpolation-filters="sRGB">
<feFlood flood-opacity="0" result="BackgroundImageFix"/>
<feColorMatrix in="SourceAlpha" type="matrix" values="0 0 0 0 0 0 0 0 0 0 0 0 0 0 0 0 0 0 127 0" result="hardAlpha"/>
<feMorphology radius="5" operator="dilate" in="SourceAlpha" result="effect1_dropShadow_1_1288"/>
<feOffset/>
<feGaussianBlur stdDeviation="10"/>
<feComposite in2="hardAlpha" operator="out"/>
<feColorMatrix type="matrix" values="0 0 0 0 0 0 0 0 0 0 0 0 0 0 0 0 0 0 0.07 0"/>
<feBlend mode="normal" in2="BackgroundImageFix" result="effect1_dropShadow_1_1288"/>
<feBlend mode="normal" in="SourceGraphic" in2="effect1_dropShadow_1_1288" result="shape"/>
</filter>
</defs>
</svg>
