<svg width="62" height="11" viewBox="0 0 62 11" fill="none" xmlns="http://www.w3.org/2000/svg">
<path d="M22.1653 0.090332C24.5361 0.090332 26.4333 0.68239 27.8825 2.00036C28.8736 2.89874 29.427 4.1781 29.4116 5.51923C29.4079 6.18097 29.2706 6.83515 29.0079 7.4425C28.7451 8.04985 28.3623 8.59783 27.8825 9.05355C26.5259 10.2994 24.4126 10.9636 22.1679 10.9636C19.9206 10.9636 17.8433 10.2994 16.4661 9.05355C15.9696 8.60979 15.5741 8.06463 15.3063 7.45491C15.0385 6.84519 14.9047 6.1851 14.9139 5.51923C14.9139 4.18582 15.4751 2.90646 16.4661 2.00036C17.7532 0.831691 20.0288 0.090332 22.1653 0.090332ZM22.173 9.53749C23.3597 9.53749 24.4589 9.12306 25.2311 8.35853C26.0034 7.58628 26.3457 6.65959 26.3457 5.51923C26.3457 4.42779 25.9648 3.40585 25.2311 2.67994C24.4743 1.93343 23.3443 1.5087 22.173 1.5087C21.0018 1.5087 19.8743 1.93086 19.1098 2.67994C18.3762 3.40585 17.9926 4.42779 17.9926 5.51923C17.9769 6.57579 18.3783 7.59595 19.1098 8.35853C19.8743 9.11533 20.9966 9.53749 22.173 9.53749ZM9.71153 4.47155C10.1234 4.57967 10.5224 4.71352 10.9111 4.89114C11.2717 5.05536 11.6017 5.27997 11.8867 5.55527C12.3938 6.08555 12.6821 6.79602 12.6744 7.52708C12.6799 7.9147 12.5945 8.29822 12.4251 8.6469C12.2557 8.99558 12.0069 9.29971 11.6988 9.53492C11.1537 9.94811 10.534 10.2523 9.8737 10.4307C8.87978 10.7427 7.84165 10.8905 6.80016 10.8683C5.89406 10.8683 5.39467 10.7628 4.70737 10.6186L4.50916 10.5775C3.75179 10.41 3.01221 10.1703 2.30053 9.86184C2.26871 9.84027 2.23083 9.82945 2.19242 9.83095C2.13597 9.83229 2.08228 9.85567 2.04284 9.89607C2.00339 9.93648 1.98132 9.99071 1.98133 10.0472V10.5697H0.46773V6.76513H1.81659C1.82489 7.15082 1.94764 7.52534 2.16925 7.84113C2.71497 8.51041 3.30188 8.76782 3.86047 8.97375C4.80519 9.28265 5.79624 9.4474 6.78471 9.47829C8.20822 9.47829 9.03968 9.13335 9.21987 9.0587L9.24304 9.04841L9.25848 9.04326C9.41808 8.98405 10.0616 8.7498 10.0616 8.03419C10.0616 7.32887 9.45927 7.17442 9.06542 7.07403L9.00879 7.06115C8.57118 6.94274 7.56211 6.83463 6.46037 6.71879L6.0691 6.6776C5.03594 6.57239 4.00787 6.42209 2.98783 6.22713C1.7059 5.94397 1.20136 5.47547 0.887317 5.18459L0.866724 5.164C0.408917 4.67586 0.154786 4.03132 0.156256 3.36209C0.156256 2.08531 1.03147 1.31306 2.10489 0.839413C3.25297 0.324581 4.61727 0.0954824 5.81168 0.0954824C7.92249 0.103205 9.63946 0.790505 10.2573 1.1097C10.5069 1.24356 10.6305 1.07881 10.6305 0.955251V0.5717H11.9871V3.88722H10.7721C10.663 3.39521 10.3975 2.95178 10.0153 2.6233C9.78236 2.43598 9.52519 2.28099 9.25076 2.16253C8.23231 1.73249 7.13592 1.51777 6.03049 1.53186C4.89013 1.53186 3.79869 1.75067 3.2504 2.08531C2.91061 2.29639 2.73556 2.56153 2.73556 2.873C2.73556 3.31833 3.11139 3.49595 3.30188 3.55C3.80641 3.70445 4.92875 3.81514 5.80139 3.90266L6.32651 3.95672C7.16826 4.04167 8.93156 4.27592 9.71153 4.47155ZM56.4763 1.90512V0.672094H61.9361V1.88195H60.7108C60.268 1.88195 60.0878 1.96689 59.7532 2.34272L56.0799 6.5386C56.0411 6.5902 56.0236 6.65468 56.0309 6.71879V8.62882C56.0371 8.71763 56.0474 8.80611 56.0618 8.89396C56.0837 8.94995 56.1184 9.00005 56.1631 9.04027C56.2078 9.08049 56.2613 9.10972 56.3193 9.12563C56.4301 9.14197 56.5419 9.15057 56.6539 9.15137H57.9049V10.3612H51.279V9.15137H52.4632C52.5752 9.1506 52.687 9.14199 52.7978 9.12563C52.8566 9.10886 52.911 9.07943 52.9573 9.03941C53.0035 8.99939 53.0405 8.94975 53.0655 8.89396C53.0809 8.80901 53.0886 8.72286 53.0887 8.63654V6.72651C53.0887 6.66216 53.0887 6.66216 53.0037 6.56177C51.7946 5.18418 50.583 3.80872 49.369 2.43539C49.1734 2.23203 48.8387 1.90512 48.3239 1.90512H47.1449V0.695261H53.8069V1.90512H53.0037C52.8235 1.90512 52.7 2.08531 52.8544 2.28094L55.1171 4.98638C55.1403 5.01727 55.1557 5.01727 55.1866 4.99411C55.2175 4.97094 57.4879 2.30411 57.5034 2.28094C57.5221 2.25632 57.5357 2.22822 57.5436 2.19829C57.5514 2.16836 57.5532 2.13717 57.5489 2.10654C57.5446 2.0759 57.5342 2.04643 57.5185 2.01981C57.5027 1.99319 57.4818 1.96996 57.457 1.95145C57.4111 1.92136 57.3575 1.90527 57.3026 1.90512H56.4763ZM40.3003 1.89739H41.5487C42.1176 1.89739 42.218 2.11619 42.2257 2.64647L42.2978 6.6776L35.6513 0.695261H30.902V1.90512H31.9626C32.7271 1.90512 32.7811 2.32728 32.7811 2.7031V8.39972C32.7811 8.72921 32.7837 9.15909 32.3126 9.15909H31.0101V10.3612H36.5806V9.15137H35.2214C34.6757 9.15137 34.6551 8.90168 34.6448 8.3714V3.52683L42.2978 10.3509H44.2464L44.1435 2.63875C44.1538 2.07758 44.1924 1.88967 44.769 1.88967H45.9866V0.679815H40.3003V1.89739Z" fill="#A9A9B9"/>
</svg>
