<svg width="203" height="203" viewBox="0 0 203 203" fill="none" xmlns="http://www.w3.org/2000/svg">
<g filter="url(#filter0_d_1_1296)">
<rect x="25.5" y="25.5" width="152" height="152" rx="76" fill="white"/>
<g clip-path="url(#clip0_1_1296)">
<path d="M86.2625 92.1721C90.3303 92.1721 93.5853 93.1879 96.0719 95.4493C97.7723 96.9907 98.7219 99.1858 98.6954 101.487C98.6892 102.622 98.4536 103.745 98.0028 104.787C97.552 105.829 96.8952 106.769 96.0719 107.551C93.7443 109.689 90.1183 110.828 86.2669 110.828C82.4112 110.828 78.8469 109.689 76.484 107.551C75.6321 106.79 74.9535 105.854 74.494 104.808C74.0346 103.762 73.805 102.629 73.8208 101.487C73.8208 99.199 74.7836 97.0039 76.484 95.4493C78.6923 93.4441 82.5967 92.1721 86.2625 92.1721ZM86.2758 108.381C88.3118 108.381 90.1978 107.67 91.5228 106.358C92.8478 105.033 93.4352 103.443 93.4352 101.487C93.4352 99.6142 92.7815 97.8608 91.5228 96.6153C90.2243 95.3344 88.2853 94.6057 86.2758 94.6057C84.2662 94.6057 82.3317 95.33 81.0199 96.6153C79.7612 97.8608 79.1031 99.6142 79.1031 101.487C79.0762 103.3 79.7649 105.05 81.0199 106.358C82.3317 107.657 84.2573 108.381 86.2758 108.381ZM64.8947 99.6893C65.6013 99.8748 66.2859 100.104 66.9528 100.409C67.5716 100.691 68.1377 101.076 68.6268 101.549C69.4968 102.459 69.9915 103.678 69.9783 104.932C69.9877 105.597 69.8412 106.255 69.5506 106.853C69.2599 107.451 68.8331 107.973 68.3043 108.377C67.3691 109.086 66.3059 109.608 65.1729 109.914C63.4676 110.449 61.6864 110.703 59.8994 110.665C58.3448 110.665 57.4879 110.484 56.3087 110.236L55.9686 110.166C54.6691 109.878 53.4002 109.467 52.1791 108.938C52.1245 108.901 52.0595 108.882 51.9936 108.885C51.8967 108.887 51.8046 108.927 51.7369 108.996C51.6693 109.066 51.6314 109.159 51.6314 109.256V110.152H49.0344V103.625H51.3488C51.363 104.286 51.5736 104.929 51.9538 105.471C52.8902 106.619 53.8972 107.061 54.8556 107.414C56.4765 107.944 58.1769 108.227 59.8729 108.28C62.3153 108.28 63.7419 107.688 64.0511 107.56L64.0908 107.542L64.1173 107.533C64.3912 107.432 65.4953 107.03 65.4953 105.802C65.4953 104.592 64.4618 104.327 63.7861 104.155L63.6889 104.132C62.9381 103.929 61.2068 103.744 59.3164 103.545L58.6451 103.474C56.8724 103.294 55.1085 103.036 53.3583 102.701C51.1588 102.216 50.2932 101.412 49.7543 100.913L49.719 100.877C48.9335 100.04 48.4975 98.9339 48.5 97.7857C48.5 95.595 50.0017 94.27 51.8434 93.4573C53.8133 92.574 56.1541 92.1809 58.2034 92.1809C61.8251 92.1942 64.771 93.3734 65.831 93.9211C66.2594 94.1508 66.4714 93.8681 66.4714 93.6561V92.998H68.799V98.6867H66.7143C66.5272 97.8425 66.0716 97.0817 65.4158 96.5181C65.0162 96.1967 64.575 95.9307 64.1041 95.7275C62.3567 94.9897 60.4755 94.6213 58.5788 94.6454C56.6223 94.6454 54.7496 95.0208 53.8088 95.595C53.2258 95.9572 52.9255 96.4121 52.9255 96.9465C52.9255 97.7106 53.5703 98.0153 53.8972 98.1081C54.7628 98.3731 56.6885 98.563 58.1858 98.7132L59.0868 98.8059C60.531 98.9517 63.5564 99.3536 64.8947 99.6893ZM145.132 95.2858V93.1703H154.5V95.2461H152.398C151.638 95.2461 151.329 95.3918 150.755 96.0367L144.452 103.236C144.386 103.324 144.356 103.435 144.368 103.545V106.822C144.379 106.975 144.396 107.126 144.421 107.277C144.459 107.373 144.518 107.459 144.595 107.528C144.672 107.597 144.763 107.647 144.863 107.675C145.053 107.703 145.245 107.717 145.437 107.719H147.584V109.795H136.215V107.719H138.247C138.439 107.717 138.631 107.703 138.821 107.675C138.922 107.646 139.015 107.595 139.094 107.527C139.174 107.458 139.237 107.373 139.28 107.277C139.307 107.131 139.32 106.984 139.32 106.835V103.558C139.32 103.448 139.32 103.448 139.174 103.276C137.1 100.912 135.021 98.552 132.938 96.1957C132.602 95.8468 132.028 95.2858 131.145 95.2858H129.122V93.21H140.552V95.2858H139.174C138.865 95.2858 138.653 95.595 138.918 95.9307L142.8 100.573C142.84 100.626 142.867 100.626 142.92 100.586C142.973 100.546 146.868 95.9704 146.895 95.9307C146.927 95.8884 146.95 95.8402 146.963 95.7889C146.977 95.7375 146.98 95.684 146.973 95.6314C146.965 95.5789 146.947 95.5283 146.92 95.4826C146.893 95.437 146.858 95.3971 146.815 95.3653C146.736 95.3137 146.644 95.2861 146.55 95.2858H145.132ZM117.378 95.2726H119.52C120.496 95.2726 120.668 95.648 120.682 96.5578L120.805 103.474L109.401 93.21H101.253V95.2858H103.072C104.384 95.2858 104.477 96.0102 104.477 96.655V106.429C104.477 106.994 104.481 107.732 103.673 107.732H101.438V109.795H110.996V107.719H108.664C107.728 107.719 107.692 107.29 107.675 106.381V98.0683L120.805 109.777H124.149L123.972 96.5446C123.99 95.5818 124.056 95.2593 125.045 95.2593H127.134V93.1835H117.378V95.2726Z" fill="#A9A9B9"/>
</g>
</g>
<defs>
<filter id="filter0_d_1_1296" x="0.5" y="0.5" width="202" height="202" filterUnits="userSpaceOnUse" color-interpolation-filters="sRGB">
<feFlood flood-opacity="0" result="BackgroundImageFix"/>
<feColorMatrix in="SourceAlpha" type="matrix" values="0 0 0 0 0 0 0 0 0 0 0 0 0 0 0 0 0 0 127 0" result="hardAlpha"/>
<feMorphology radius="5" operator="dilate" in="SourceAlpha" result="effect1_dropShadow_1_1296"/>
<feOffset/>
<feGaussianBlur stdDeviation="10"/>
<feComposite in2="hardAlpha" operator="out"/>
<feColorMatrix type="matrix" values="0 0 0 0 0 0 0 0 0 0 0 0 0 0 0 0 0 0 0.07 0"/>
<feBlend mode="normal" in2="BackgroundImageFix" result="effect1_dropShadow_1_1296"/>
<feBlend mode="normal" in="SourceGraphic" in2="effect1_dropShadow_1_1296" result="shape"/>
</filter>
<clipPath id="clip0_1_1296">
<rect width="106" height="106" fill="white" transform="translate(48.5 48.5)"/>
</clipPath>
</defs>
</svg>
